<svg aria-hidden="true" version="1.1" xmlns="http://www.w3.org/2000/svg" xmlns:xlink="http://www.w3.org/1999/xlink">

<defs>

<!-- Edit Icon -->
<symbol id="edit" viewBox="0 96 960 960">
<path d="M180 876h44l443-443-44-44-443 443v44Zm614-486L666 262l42-42q17-17 42-17t42 17l44 44q17 17 17 42t-17 42l-42 42Zm-42 42L248 936H120V808l504-504 128 128Zm-107-21-22-22 44 44-22-22Z"/>
</symbol>

<!-- Delete Icon -->
<symbol id="delete" viewBox="0 96 960 960">
<path d="M261 936q-24.75 0-42.375-17.625T201 876V306h-41v-60h188v-30h264v30h188v60h-41v570q0 24-18 42t-42 18H261Zm438-630H261v570h438V306ZM367 790h60V391h-60v399Zm166 0h60V391h-60v399ZM261 306v570-570Z"/>
</symbol>

<!-- Plus Icon -->
<symbol id="plus" viewBox="0 0 24 24" fill="#fff">
<path d="M0 0h24v24H0z" fill="none"/>
<path d="M19 13h-6v6h-2v-6H5v-2h6V5h2v6h6v2z"/>
</symbol>

</defs>

</svg>